<svg width="15" height="15" viewBox="0 0 15 15" fill="none" xmlns="http://www.w3.org/2000/svg">
<path d="M15 7.99998C15 8.30949 14.877 8.60632 14.6582 8.82517C14.4393 9.04403 14.1425 9.16698 13.833 9.16698H9.16698V13.834C9.15809 14.1374 9.0313 14.4255 8.81351 14.637C8.59571 14.8485 8.30407 14.9668 8.00048 14.9668C7.69689 14.9668 7.40524 14.8485 7.18745 14.637C6.96966 14.4255 6.84286 14.1374 6.83398 13.834V9.16698H2.16698C2.01092 9.17155 1.85553 9.14476 1.71001 9.08819C1.56449 9.03162 1.4318 8.94643 1.31979 8.83766C1.20779 8.72889 1.11875 8.59875 1.05795 8.45495C0.997149 8.31115 0.96582 8.15661 0.96582 8.00048C0.96582 7.84435 0.997149 7.68981 1.05795 7.54601C1.11875 7.40221 1.20779 7.27207 1.31979 7.16329C1.4318 7.05452 1.56449 6.96933 1.71001 6.91277C1.85553 6.8562 2.01092 6.82941 2.16698 6.83398H6.83298V2.16698C6.82841 2.01092 6.8552 1.85553 6.91177 1.71001C6.96833 1.56449 7.05352 1.4318 7.1623 1.31979C7.27107 1.20779 7.40121 1.11875 7.54501 1.05795C7.68881 0.997149 7.84335 0.96582 7.99948 0.96582C8.15561 0.96582 8.31015 0.997149 8.45395 1.05795C8.59775 1.11875 8.72789 1.20779 8.83666 1.31979C8.94543 1.4318 9.03062 1.56449 9.08719 1.71001C9.14376 1.85553 9.17055 2.01092 9.16598 2.16698V6.83298H13.833C14.1425 6.83298 14.4393 6.95593 14.6582 7.17478C14.877 7.39364 15 7.69047 15 7.99998Z" fill="white"/>
</svg>
