<svg width="13" height="10" viewBox="0 0 13 10" fill="none" xmlns="http://www.w3.org/2000/svg">
<path d="M5.74403 9.50099C5.60449 9.50066 5.46656 9.47112 5.33911 9.41429C5.21167 9.35746 5.09753 9.27458 5.00403 9.17099L1.25403 4.99098C1.07634 4.7934 0.984411 4.53332 0.998476 4.26795C1.01254 4.00259 1.13145 3.75368 1.32903 3.57599C1.52662 3.39829 1.7867 3.30636 2.05207 3.32043C2.31743 3.33449 2.56634 3.4534 2.74403 3.65099L5.74403 7.00099L11.254 0.830985C11.4317 0.633399 11.6806 0.514494 11.946 0.500429C12.2114 0.486364 12.4714 0.57829 12.669 0.755985C12.8666 0.93368 12.9855 1.18259 12.9996 1.44795C13.0137 1.71332 12.9217 1.9734 12.744 2.17099L6.48403 9.17099C6.39054 9.27458 6.2764 9.35746 6.14895 9.41429C6.02151 9.47112 5.88358 9.50066 5.74403 9.50099Z" fill="white"/>
</svg>
