<svg width="19" height="19" viewBox="0 0 19 19" fill="none" xmlns="http://www.w3.org/2000/svg">
<g clip-path="url(#clip0_7_5650)">
<path d="M13.9432 6.19737H14.818L13.3061 8.21476L11.5388 6.19737H12.4863C12.4856 6.05297 12.4639 5.61415 12.1329 5.22985C11.5926 4.60263 10.7271 4.70266 10.6648 4.71093C10.3478 4.49471 10.2406 4.08409 10.4097 3.75544C10.5712 3.44183 10.9447 3.27676 11.3023 3.36625C11.4854 3.37941 12.6075 3.47981 13.3603 4.42778C13.9444 5.16254 13.9506 5.95822 13.9432 6.19737H13.9432Z" fill="white"/>
<path d="M5.80113 12.5096H4.92676L6.43862 10.4922L8.20556 12.5096H7.25842C7.25881 12.654 7.28048 13.0928 7.61142 13.4771C8.15215 14.1043 9.01723 14.0043 9.07993 13.996C9.39693 14.2122 9.50376 14.6229 9.33461 14.9515C9.17359 15.2651 8.79969 15.4302 8.44205 15.3407C8.25897 15.3275 7.13726 15.2271 6.38404 14.2792C5.80035 13.5444 5.79377 12.7487 5.80112 12.5096H5.80113Z" fill="white"/>
<path fill-rule="evenodd" clip-rule="evenodd" d="M6.65477 4.11608V1.91431H3.41687C3.20155 1.91431 3.02832 2.08754 3.02832 2.30286V9.81478C3.02832 10.0301 3.20155 10.2033 3.41687 10.2033H8.85654C9.07186 10.2033 9.24509 10.0301 9.24509 9.81478V4.50463H7.04332C6.82962 4.50463 6.65477 4.32978 6.65477 4.11608ZM9.24509 3.88781V3.98657H7.17284V1.91432H7.2716C7.37521 1.91432 7.47397 1.95479 7.54682 2.02765L9.13177 3.61422C9.20462 3.68707 9.2451 3.78583 9.2451 3.88782L9.24509 3.88781Z" fill="white"/>
<path fill-rule="evenodd" clip-rule="evenodd" d="M13.1323 10.9952V8.79346H9.89441C9.67909 8.79346 9.50586 8.96669 9.50586 9.18201V16.6939C9.50586 16.9092 9.67909 17.0825 9.89441 17.0825H15.3341C15.5494 17.0825 15.7226 16.9092 15.7226 16.6939V11.3838H13.5209C13.3072 11.3838 13.1323 11.2089 13.1323 10.9952ZM14.1689 14.8155C14.1689 14.9223 14.0815 15.0098 13.9746 15.0098H11.2548C11.148 15.0098 11.0605 14.9223 11.0605 14.8155V14.686C11.0605 14.5791 11.148 14.4917 11.2548 14.4917H13.9746C14.0815 14.4917 14.1689 14.5791 14.1689 14.686V14.8155ZM14.1689 13.7794C14.1689 13.8862 14.0815 13.9736 13.9746 13.9736H11.2548C11.148 13.9736 11.0605 13.8862 11.0605 13.7794V13.6498C11.0605 13.543 11.148 13.4556 11.2548 13.4556H13.9746C14.0815 13.4556 14.1689 13.543 14.1689 13.6498V13.7794ZM14.1689 12.6137V12.7432C14.1689 12.8501 14.0815 12.9375 13.9746 12.9375H11.2548C11.148 12.9375 11.0605 12.8501 11.0605 12.7432V12.6137C11.0605 12.5069 11.148 12.4194 11.2548 12.4194H13.9746C14.0815 12.4194 14.1689 12.5069 14.1689 12.6137ZM15.7226 10.767V10.8657H13.6504V8.79347H13.7491C13.8527 8.79347 13.9515 8.83394 14.0244 8.9068L15.6093 10.4934C15.6822 10.5662 15.7226 10.665 15.7226 10.767L15.7226 10.767Z" fill="white"/>
</g>
<defs>
<clipPath id="clip0_7_5650">
<rect width="12.6948" height="15.168" fill="white" transform="translate(3.02832 1.91431)"/>
</clipPath>
</defs>
</svg>
