<svg width="10" height="8" viewBox="0 0 10 8" fill="none" xmlns="http://www.w3.org/2000/svg">
<mask id="mask0_7_1402" style="mask-type:alpha" maskUnits="userSpaceOnUse" x="-1" y="0" width="11" height="8">
<rect x="-0.015625" y="0.538574" width="10" height="7" fill="black"/>
</mask>
<g mask="url(#mask0_7_1402)">
<path d="M9.98455 4.56062C9.97686 4.57006 9.96917 4.57991 9.96109 4.58935C8.04263 4.58935 6.12417 4.58853 4.20571 4.58689C4.13148 4.58689 4.11417 4.60946 4.11417 4.68662C4.11686 5.60963 4.11417 6.53347 4.11417 7.45608C4.11417 7.48358 4.11724 7.51108 4.11878 7.53816H3.07724C3.07724 7.50369 3.08109 7.46921 3.08109 7.43433C3.08109 6.52527 3.08109 5.61579 3.0834 4.70673C3.0834 4.61192 3.06148 4.58606 2.97148 4.58648C2.01378 4.58976 1.05648 4.58648 0.0987831 4.58648C0.0603215 4.58648 0.02186 4.58237 -0.0166016 4.57991V3.49724C0.02186 3.49519 0.0603215 3.49067 0.0987831 3.49067C1.06032 3.49067 2.02186 3.49067 2.98109 3.49067C3.06301 3.49067 3.0834 3.46646 3.08301 3.38109C3.07994 2.68667 3.08301 1.99267 3.08109 1.29866C3.08263 1.04708 3.08071 0.793851 3.07955 0.538574H4.12071C4.11886 0.548744 4.11757 0.559025 4.11686 0.569355C4.11686 1.51659 4.11596 2.46396 4.11417 3.41146C4.11417 3.49355 4.15263 3.48903 4.20571 3.48903H9.96109C9.96917 3.49847 9.97686 3.50832 9.98455 3.51776V4.56062Z" fill="white"/>
<path d="M3.07958 0.538574C3.07958 0.791799 3.08304 1.04502 3.08304 1.29825C3.08304 1.99226 3.08304 2.68667 3.08497 3.38068C3.08497 3.46605 3.06497 3.49067 2.98343 3.49026C2.02189 3.48698 1.06035 3.48821 0.100736 3.49026C0.0622746 3.49026 0.0238131 3.49478 -0.0146484 3.49683V1.18415C0.0264169 1.07658 0.0747477 0.972335 0.129967 0.87224C0.285482 0.651401 0.533744 0.527559 0.792275 0.541858L3.07958 0.538574" fill="#FE4C56"/>
<path d="M-0.0158323 4.5813C0.0226292 4.58376 0.0610907 4.58828 0.0995523 4.58828C1.05724 4.58828 2.01455 4.58828 2.97224 4.58828C3.06224 4.58828 3.08417 4.61372 3.08417 4.70853C3.08071 5.61759 3.08186 6.52707 3.08186 7.43613C3.08186 7.47102 3.07955 7.50549 3.07801 7.53997C2.31494 7.53997 1.55186 7.53997 0.788783 7.53997C0.588933 7.54942 0.393172 7.47754 0.241091 7.33886C0.143391 7.24664 0.0692715 7.12942 0.0257061 6.99822C0.0137831 6.96375 0.0160907 6.92229 -0.0166016 6.89767V4.5813" fill="#FE4C56"/>
<path d="M9.9607 3.48923H4.20493C4.15339 3.48923 4.11339 3.49416 4.11377 3.41207C4.11646 2.46443 4.11377 1.5172 4.11608 0.569555C4.11671 0.559057 4.11813 0.548624 4.12031 0.538364C5.64621 0.538364 7.17185 0.539184 8.69723 0.540826C8.8983 0.531452 9.09971 0.535429 9.30031 0.552728C9.67038 0.587301 9.95561 0.915619 9.95993 1.31199C9.97031 2.03719 9.95993 2.76239 9.95993 3.48718" fill="#FE4C56"/>
<path d="M4.12034 7.53868C4.12034 7.51118 4.11572 7.48328 4.11572 7.4566C4.11572 6.53344 4.11572 5.61029 4.11572 4.68713C4.11572 4.61039 4.13303 4.5874 4.20688 4.5874C6.12585 4.58986 8.04444 4.59082 9.96265 4.59028C9.96265 5.31547 9.96534 6.04067 9.96265 6.76546C9.9614 6.8772 9.93502 6.98699 9.88572 7.08559C9.75025 7.38006 9.46173 7.55831 9.15495 7.53704H5.31803C4.9188 7.53704 4.51957 7.53704 4.12034 7.53704" fill="#FE4C56"/>
</g>
</svg>
