<svg width="70" height="61" viewBox="0 0 70 61" fill="none" xmlns="http://www.w3.org/2000/svg">
<g filter="url(#filter0_d_7_1421)">
<mask id="mask0_7_1421" style="mask-type:alpha" maskUnits="userSpaceOnUse" x="24" y="20" width="22" height="13">
<rect x="24.5713" y="20" width="20.967" height="12.2308" fill="black"/>
</mask>
<g mask="url(#mask0_7_1421)">
<path d="M45.5383 27.0275C45.5222 27.044 45.506 27.0612 45.4891 27.0777C41.4667 27.0777 37.4442 27.0763 33.4218 27.0734C33.2661 27.0734 33.2298 27.1129 33.2298 27.2477C33.2355 28.8604 33.2298 30.4746 33.2298 32.0866C33.2298 32.1347 33.2363 32.1827 33.2395 32.2301H31.0557C31.0557 32.1698 31.0638 32.1096 31.0638 32.0486C31.0638 30.4603 31.0638 28.8712 31.0686 27.2828C31.0686 27.1172 31.0227 27.072 30.834 27.0727C28.826 27.0784 26.8188 27.0727 24.8108 27.0727C24.7301 27.0727 24.6495 27.0655 24.5688 27.0612V25.1695C24.6495 25.166 24.7301 25.1581 24.8108 25.1581C26.8268 25.1581 28.8429 25.1581 30.8541 25.1581C31.0259 25.1581 31.0686 25.1158 31.0678 24.9666C31.0614 23.7533 31.0678 22.5407 31.0638 21.3281C31.067 20.8885 31.063 20.446 31.0606 20H33.2436C33.2397 20.0178 33.237 20.0357 33.2355 20.0538C33.2355 21.7088 33.2336 23.3641 33.2298 25.0197C33.2298 25.1631 33.3105 25.1552 33.4218 25.1552H45.4891C45.506 25.1717 45.5222 25.1889 45.5383 25.2054V27.0275Z" fill="white"/>
<path d="M31.0604 20C31.0604 20.4424 31.0677 20.8849 31.0677 21.3273C31.0677 22.5399 31.0677 23.7533 31.0717 24.9659C31.0717 25.115 31.0298 25.1581 30.8588 25.1573C28.8428 25.1516 26.8267 25.1538 24.8147 25.1573C24.734 25.1573 24.6534 25.1652 24.5728 25.1688V21.128C24.6589 20.94 24.7602 20.7579 24.876 20.583C25.202 20.1971 25.7226 19.9808 26.2646 20.0057L31.0604 20" fill="#FE4C56"/>
<path d="M24.5709 27.0645C24.6516 27.0688 24.7322 27.0766 24.8129 27.0766C26.8209 27.0766 28.8281 27.0766 30.8361 27.0766C31.0248 27.0766 31.0707 27.1211 31.0707 27.2868C31.0635 28.8751 31.0659 30.4642 31.0659 32.0526C31.0659 32.1135 31.0611 32.1738 31.0578 32.234C29.4579 32.234 27.8579 32.234 26.258 32.234C25.839 32.2505 25.4285 32.1249 25.1096 31.8826C24.9048 31.7215 24.7494 31.5167 24.658 31.2874C24.633 31.2272 24.6379 31.1548 24.5693 31.1117V27.0645" fill="#FE4C56"/>
<path d="M45.4893 25.1556H33.4211C33.313 25.1556 33.2292 25.1642 33.23 25.0208C33.2356 23.365 33.23 21.71 33.2348 20.0542C33.2362 20.0358 33.2391 20.0176 33.2437 19.9997C36.443 19.9997 39.6419 20.0011 42.8401 20.004C43.2617 19.9876 43.684 19.9946 44.1046 20.0248C44.8805 20.0852 45.4786 20.6588 45.4876 21.3514C45.5094 22.6185 45.4876 23.8856 45.4876 25.152" fill="#FE4C56"/>
<path d="M33.2436 32.2291C33.2436 32.1811 33.2339 32.1323 33.2339 32.0857C33.2339 30.4727 33.2339 28.8597 33.2339 27.2468C33.2339 27.1127 33.2702 27.0725 33.425 27.0725C37.4485 27.0768 41.4712 27.0785 45.4931 27.0775C45.4931 28.3446 45.4988 29.6117 45.4931 30.8781C45.4905 31.0734 45.4352 31.2652 45.3319 31.4375C45.0478 31.952 44.4429 32.2634 43.7997 32.2263H35.7548C34.9177 32.2263 34.0806 32.2263 33.2436 32.2263" fill="#FE4C56"/>
</g>
</g>
<defs>
<filter id="filter0_d_7_1421" x="0.571289" y="0" width="68.9668" height="60.2307" filterUnits="userSpaceOnUse" color-interpolation-filters="sRGB">
<feFlood flood-opacity="0" result="BackgroundImageFix"/>
<feColorMatrix in="SourceAlpha" type="matrix" values="0 0 0 0 0 0 0 0 0 0 0 0 0 0 0 0 0 0 127 0" result="hardAlpha"/>
<feOffset dy="4"/>
<feGaussianBlur stdDeviation="12"/>
<feColorMatrix type="matrix" values="0 0 0 0 0.298039 0 0 0 0 0.298039 0 0 0 0 0.298039 0 0 0 0.160784 0"/>
<feBlend mode="normal" in2="BackgroundImageFix" result="effect1_dropShadow_7_1421"/>
<feBlend mode="normal" in="SourceGraphic" in2="effect1_dropShadow_7_1421" result="shape"/>
</filter>
</defs>
</svg>
