<svg width="19" height="19" viewBox="0 0 19 19" fill="none" xmlns="http://www.w3.org/2000/svg">
<path fill-rule="evenodd" clip-rule="evenodd" d="M10.5 6.21704V2.49829H5.03125C4.66758 2.49829 4.375 2.79087 4.375 3.15454V15.842C4.375 16.2057 4.66758 16.4983 5.03125 16.4983H14.2188C14.5824 16.4983 14.875 16.2057 14.875 15.842V6.87329H11.1562C10.7953 6.87329 10.5 6.57798 10.5 6.21704ZM12.25 12.6702C12.25 12.8506 12.1023 12.9983 11.9219 12.9983H7.32813C7.14766 12.9983 7.00001 12.8506 7.00001 12.6702V12.4514C7.00001 12.271 7.14767 12.1233 7.32813 12.1233H11.9219C12.1024 12.1233 12.25 12.271 12.25 12.4514L12.25 12.6702ZM12.25 10.9202C12.25 11.1006 12.1023 11.2483 11.9219 11.2483H7.32813C7.14766 11.2483 7.00001 11.1006 7.00001 10.9202V10.7014C7.00001 10.521 7.14767 10.3733 7.32813 10.3733H11.9219C12.1024 10.3733 12.25 10.521 12.25 10.7014L12.25 10.9202ZM12.25 8.95142V9.17017C12.25 9.35064 12.1023 9.4983 11.9219 9.4983H7.32813C7.14766 9.4983 7.00001 9.35065 7.00001 9.17018V8.95143C7.00001 8.77096 7.14767 8.62331 7.32813 8.62331H11.9219C12.1024 8.62331 12.25 8.77097 12.25 8.95144L12.25 8.95142ZM14.875 5.83149V5.99829H11.375V2.49829H11.5418C11.7168 2.49829 11.8836 2.56665 12.0066 2.6897L14.6836 5.36939C14.8066 5.49244 14.875 5.65923 14.875 5.8315V5.83149Z" fill="white"/>
</svg>
