<svg width="13" height="13" viewBox="0 0 13 13" fill="none" xmlns="http://www.w3.org/2000/svg">
<path fill-rule="evenodd" clip-rule="evenodd" d="M7.3493 12.5C7.2243 12.5 7.0983 12.469 6.9853 12.405L4.7863 11.184C4.5463 11.052 4.3993 10.801 4.3993 10.528V6.784L0.154302 1.204C-0.0196984 0.978 -0.0486984 0.672 0.0783016 0.417C0.206302 0.161 0.464302 0 0.750302 0H11.7503C12.0353 0 12.2953 0.161 12.4213 0.417C12.5493 0.673 12.5193 0.978 12.3473 1.204L8.0993 6.784V11.75C8.0993 12.016 7.9593 12.262 7.7303 12.397C7.6133 12.466 7.4813 12.5 7.3493 12.5ZM5.89967 10.087L6.59967 10.476V6.531C6.59967 6.367 6.65467 6.208 6.75367 6.077L10.2367 1.5H2.26367L5.74767 6.077C5.84567 6.208 5.89967 6.367 5.89967 6.531V10.087Z" fill="#0A2C4A"/>
</svg>
