<svg width="36" height="36" viewBox="0 0 36 36" fill="none" xmlns="http://www.w3.org/2000/svg">
<path d="M1.3335 7.99992C1.3335 6.23181 2.03588 4.53612 3.28612 3.28587C4.53636 2.03563 6.23205 1.33325 8.00016 1.33325H28.0002C29.7683 1.33325 31.464 2.03563 32.7142 3.28587C33.9644 4.53612 34.6668 6.23181 34.6668 7.99992V27.9999C34.6668 29.768 33.9644 31.4637 32.7142 32.714C31.464 33.9642 29.7683 34.6666 28.0002 34.6666H8.00016C6.23205 34.6666 4.53636 33.9642 3.28612 32.714C2.03588 31.4637 1.3335 29.768 1.3335 27.9999V7.99992Z" stroke="#697588" stroke-width="2" stroke-linecap="round" stroke-linejoin="round"/>
<path d="M12.1667 16.3333C14.4679 16.3333 16.3333 14.4679 16.3333 12.1667C16.3333 9.86548 14.4679 8 12.1667 8C9.86548 8 8 9.86548 8 12.1667C8 14.4679 9.86548 16.3333 12.1667 16.3333Z" stroke="#697588" stroke-width="2" stroke-linecap="round" stroke-linejoin="round"/>
<path d="M22.21 19.0349L8 34.6666H28.2217C29.931 34.6666 31.5703 33.9876 32.779 32.7789C33.9876 31.5702 34.6667 29.9309 34.6667 28.2216V27.9999C34.6667 27.2233 34.375 26.9249 33.85 26.3499L27.1333 19.0249C26.8203 18.6834 26.4395 18.411 26.0153 18.2249C25.5911 18.0388 25.1327 17.9432 24.6695 17.9441C24.2062 17.945 23.7483 18.0425 23.3248 18.2303C22.9013 18.4182 22.5216 18.6922 22.21 19.0349V19.0349Z" stroke="#697588" stroke-width="2" stroke-linecap="round" stroke-linejoin="round"/>
</svg>
