<svg width="36" height="23" viewBox="0 0 36 23" fill="none" xmlns="http://www.w3.org/2000/svg">
<path fill-rule="evenodd" clip-rule="evenodd" d="M3.47249 3.33737H3.47246V3.33738C-1.11986 7.78724 -1.19496 14.9291 3.47246 19.4518C6.12794 22.0249 11.0915 22.9129 13.5877 20.4942L4.31309 11.5072L11.9038 4.15195L24.0506 15.922L28.5704 11.5425L20.1027 3.33737C15.5104 -1.11246 8.06481 -1.11246 3.47249 3.33737ZM32.3389 19.6564H32.3389C36.9312 15.203 36.8433 7.89789 32.3389 3.52994C29.4544 0.732859 24.0138 -0.618401 21.5176 1.80213L31.4983 11.4803L23.9076 18.8412L11.7607 7.06229L7.24097 11.4451L15.7087 19.6564C20.301 24.1095 27.7466 24.1095 32.3389 19.6564Z" fill="white"/>
</svg>
