<svg width="18" height="19" viewBox="0 0 18 19" fill="none" xmlns="http://www.w3.org/2000/svg">
<path fill-rule="evenodd" clip-rule="evenodd" d="M16.5004 11.977C16.5665 11.6189 16.5665 11.2533 16.5004 10.8953L17.1555 10.517C17.2317 10.4738 17.2647 10.385 17.2393 10.3012C17.0692 9.75274 16.7772 9.25509 16.3963 8.84376C16.3379 8.78028 16.244 8.76505 16.1678 8.80821L15.5127 9.18653C15.236 8.9504 14.9186 8.76758 14.5758 8.64571V7.88907C14.5758 7.80274 14.5149 7.72657 14.4311 7.7088C13.8649 7.58185 13.2885 7.58693 12.7502 7.7088C12.6665 7.72657 12.6055 7.80275 12.6055 7.88907V8.64571C12.2627 8.76758 11.9454 8.9504 11.6686 9.18653L11.0135 8.80821C10.9399 8.76505 10.8434 8.78028 10.785 8.84376C10.4041 9.25509 10.1122 9.75274 9.94204 10.3012C9.91665 10.385 9.9522 10.4738 10.0258 10.517L10.6809 10.8953C10.6149 11.2533 10.6149 11.6189 10.6809 11.977L10.0258 12.3553C9.94966 12.3984 9.91665 12.4873 9.94204 12.5711C10.1122 13.1195 10.4041 13.6146 10.785 14.0285C10.8434 14.092 10.9373 14.1072 11.0135 14.0641L11.6686 13.6857C11.9454 13.9219 12.2627 14.1047 12.6055 14.2266V14.9832C12.6055 15.0695 12.6665 15.1457 12.7502 15.1635C13.3165 15.2904 13.8928 15.2854 14.4311 15.1635C14.5149 15.1457 14.5758 15.0695 14.5758 14.9832V14.2266C14.9186 14.1047 15.236 13.9219 15.5127 13.6857L16.1678 14.0641C16.2415 14.1072 16.3379 14.092 16.3963 14.0285C16.7772 13.6172 17.0692 13.1195 17.2393 12.5711C17.2647 12.4873 17.2292 12.3984 17.1555 12.3553L16.5004 11.977ZM13.5938 12.6672C12.9133 12.6672 12.3623 12.1137 12.3623 11.4358C12.3623 10.7579 12.9158 10.2043 13.5938 10.2043C14.2717 10.2043 14.8252 10.7579 14.8252 11.4358C14.8252 12.1137 14.2742 12.6672 13.5938 12.6672ZM6.68751 8.99829C8.48263 8.99829 9.93751 7.54341 9.93751 5.74829C9.93751 3.95317 8.48263 2.49829 6.68751 2.49829C4.89239 2.49829 3.43751 3.95317 3.43751 5.74829C3.43751 7.54341 4.89239 8.99829 6.68751 8.99829ZM11.7961 14.7493C11.7377 14.7188 11.6793 14.6833 11.6234 14.6503L11.4228 14.7671C11.2705 14.8534 11.0978 14.9016 10.9252 14.9016C10.6484 14.9016 10.3818 14.7848 10.1914 14.5817C9.72675 14.079 9.37128 13.4671 9.1707 12.8145C9.03105 12.3651 9.21894 11.8903 9.62519 11.6542L9.82578 11.5374C9.82324 11.4713 9.82324 11.4053 9.82578 11.3393L9.62519 11.2225C9.21894 10.9889 9.03105 10.5116 9.1707 10.0622C9.19355 9.98853 9.22656 9.91489 9.25195 9.84126C9.15547 9.83364 9.06152 9.81079 8.9625 9.81079H8.53848C7.97481 10.0698 7.34766 10.217 6.6875 10.217C6.02734 10.217 5.40273 10.0698 4.83652 9.81079H4.4125C2.52851 9.81079 1 11.3393 1 13.2233V14.2795C1 14.9524 1.5459 15.4983 2.21875 15.4983H11.1562C11.4127 15.4983 11.6514 15.417 11.8469 15.2825C11.8164 15.186 11.7961 15.087 11.7961 14.9829V14.7493Z" fill="white"/>
</svg>
