<svg width="18" height="18" viewBox="0 0 18 18" fill="none" xmlns="http://www.w3.org/2000/svg">
<path fill-rule="evenodd" clip-rule="evenodd" d="M17.6744 15.7532L13.0937 11.5791C13.8259 10.4544 14.2564 9.11297 14.2564 7.67165C14.2564 3.72326 11.0591 0.51001 7.12868 0.51001C3.19727 0.51001 0 3.72326 0 7.67165C0 11.62 3.19727 14.8333 7.12868 14.8333C8.90661 14.8333 10.5307 14.1711 11.7802 13.0853L16.3279 17.2295C16.5187 17.4043 16.7604 17.4902 17.0012 17.4902C17.2718 17.4902 17.5425 17.3813 17.7393 17.1646C18.1109 16.7571 18.0819 16.1248 17.6744 15.7532M7.12906 12.836C4.30036 12.836 1.99805 10.5197 1.99805 7.67204C1.99805 4.82436 4.30036 2.50806 7.12906 2.50806C9.95776 2.50806 12.2591 4.82436 12.2591 7.67204C12.2591 10.5197 9.95776 12.836 7.12906 12.836Z" fill="white"/>
</svg>
