<svg width="19" height="19" viewBox="0 0 19 19" fill="none" xmlns="http://www.w3.org/2000/svg">
<path fill-rule="evenodd" clip-rule="evenodd" d="M15.0005 9.49829C15.0005 9.32579 14.993 9.16079 14.978 8.98829L16.373 7.93079C16.673 7.70579 16.7555 7.28579 16.568 6.95579L15.1655 4.53329C14.978 4.20329 14.573 4.06829 14.228 4.21829L12.6155 4.90079C12.338 4.70579 12.0455 4.53329 11.738 4.39079L11.5205 2.65829C11.4755 2.28329 11.153 1.99829 10.778 1.99829H7.98048C7.59798 1.99829 7.27548 2.28329 7.23048 2.65829L7.01298 4.39079C6.70548 4.53329 6.41298 4.70579 6.13548 4.90079L4.52298 4.21829C4.17798 4.06829 3.77298 4.20329 3.58548 4.53329L2.18298 6.96329C1.99548 7.29329 2.07798 7.70579 2.37798 7.93829L3.77298 8.99579C3.75798 9.16079 3.75048 9.32579 3.75048 9.49829C3.75048 9.67079 3.75798 9.83579 3.77298 10.0083L2.37798 11.0658C2.07798 11.2908 1.99548 11.7108 2.18298 12.0408L3.58548 14.4633C3.77298 14.7933 4.17798 14.9283 4.52298 14.7783L6.13548 14.0958C6.41298 14.2908 6.70548 14.4633 7.01298 14.6058L7.23048 16.3383C7.27548 16.7133 7.59798 16.9983 7.97298 16.9983H10.7705C11.1455 16.9983 11.468 16.7133 11.513 16.3383L11.7305 14.6058C12.038 14.4633 12.3305 14.2908 12.608 14.0958L14.2205 14.7783C14.5655 14.9283 14.9705 14.7933 15.158 14.4633L16.5605 12.0408C16.748 11.7108 16.6655 11.2983 16.3655 11.0658L14.9705 10.0083C14.993 9.83579 15.0005 9.67079 15.0005 9.49829ZM9.40549 12.1233C7.95799 12.1233 6.78049 10.9458 6.78049 9.49829C6.78049 8.05079 7.95799 6.87329 9.40549 6.87329C10.853 6.87329 12.0305 8.05079 12.0305 9.49829C12.0305 10.9458 10.853 12.1233 9.40549 12.1233Z" fill="white"/>
</svg>
