<svg width="64" height="44" viewBox="0 0 64 44" fill="none" xmlns="http://www.w3.org/2000/svg">
<path d="M-1 0H52C58.6274 0 64 5.37258 64 12V32C64 38.6274 58.6274 44 52 44H-1V0Z" fill="#2E435D"/>
<path d="M-1 0.999999C-1 0.447714 -0.552285 0 2.98023e-08 0V0C2.76142 0 5 2.23858 5 5V39C5 41.7614 2.76142 44 1.19209e-07 44V44C-0.552285 44 -1 43.5523 -1 43V0.999999Z" fill="white"/>
<path fill-rule="evenodd" clip-rule="evenodd" d="M32.56 21.5041C35.0416 21.5041 37.0528 19.526 37.0528 17.0854C37.0528 14.6448 35.0416 12.6667 32.56 12.6667C30.0785 12.6667 28.0673 14.6448 28.0673 17.0854C28.0673 19.526 30.0785 21.5041 32.56 21.5041ZM35.705 22.6082H35.1188C34.3396 22.9603 33.4726 23.1605 32.56 23.1605C31.6475 23.1605 30.784 22.9603 30.0013 22.6082H29.4151C26.8107 22.6082 24.6978 24.6863 24.6978 27.2477V28.6838C24.6978 29.5986 25.4524 30.3408 26.3825 30.3408H38.7376C39.6677 30.3408 40.4223 29.5986 40.4223 28.6838V27.2477C40.4223 24.6863 38.3093 22.6082 35.705 22.6082H35.705Z" fill="white"/>
</svg>
