<svg width="64" height="44" viewBox="0 0 64 44" fill="none" xmlns="http://www.w3.org/2000/svg">
<path d="M-1 0H52C58.6274 0 64 5.37258 64 12V32C64 38.6274 58.6274 44 52 44H-1V0Z" fill="#2E435D"/>
<path d="M-1 0.999999C-1 0.447714 -0.552285 0 0 0C2.76142 0 5 2.23858 5 5V39C5 41.7614 2.76142 44 1.19209e-07 44C-0.552285 44 -1 43.5523 -1 43V0.999999Z" fill="white"/>
<path fill-rule="evenodd" clip-rule="evenodd" d="M41.8892 12L33.0003 12C32.3892 12 31.8892 12.5 31.8892 13.1111V14.9C31.8892 14.9 31.8892 14.9 31.9003 14.9111L37.4558 19.9111C38.1558 20.5333 38.5558 21.4444 38.5558 22.3889V23.1111H40.7781V25.3333H38.5558V27.5556H40.7781V29.7778H38.5558V32H41.8892C42.5003 32 43.0003 31.5 43.0003 30.8889V13.1111C43.0003 12.5 42.5003 12 41.8892 12L41.8892 12ZM36.334 16.4449H34.1118V14.2227H36.334V16.4449ZM40.778 20.8889H38.5558V18.6667H40.778V20.8889ZM40.7781 16.4449H38.5558V14.2227H40.7781V16.4449Z" fill="white"/>
<path d="M36.3333 30.8885V22.3885C36.3333 22.0774 36.2 21.7774 35.9667 21.5662L30.4111 16.5662C30.2 16.3662 29.9333 16.2773 29.6667 16.2773C29.4 16.2773 29.1333 16.3773 28.9222 16.5662L23.3667 21.5662C23.1333 21.7662 23 22.0662 23 22.3885L23 30.8885C23 31.4996 23.5 31.9996 24.1111 31.9996H26.3333C26.9444 31.9996 27.4444 31.4996 27.4444 30.8885V26.444H31.8889V30.8885C31.8889 31.4996 32.3889 31.9996 33 31.9996H35.2222C35.8333 31.9996 36.3333 31.4996 36.3333 30.8885Z" fill="white"/>
</svg>
