<svg width="64" height="44" viewBox="0 0 64 44" fill="none" xmlns="http://www.w3.org/2000/svg">
<path d="M-1 0H52C58.6274 0 64 5.37258 64 12V32C64 38.6274 58.6274 44 52 44H-1V0Z" fill="#2E435D"/>
<path d="M-1 0.999999C-1 0.447714 -0.552285 0 0 0C2.76142 0 5 2.23858 5 5V39C5 41.7614 2.76142 44 1.19209e-07 44C-0.552285 44 -1 43.5523 -1 43V0.999999Z" fill="white"/>
<path d="M37.229 26.2292H35.1873C34.9166 26.2292 34.657 26.3368 34.4654 26.5281C34.2741 26.7197 34.1665 26.9793 34.1665 27.25C34.1665 27.5207 34.2741 27.7804 34.4654 27.9718C34.657 28.1633 34.9165 28.2709 35.1873 28.2709H37.229V30.3124C37.229 30.5833 37.3365 30.8429 37.5279 31.0343C37.7194 31.2258 37.979 31.3333 38.2497 31.3333C38.5205 31.3333 38.7802 31.2258 38.9716 31.0343C39.1631 30.8429 39.2706 30.5833 39.2706 30.3124V28.2709H41.3122C41.583 28.2709 41.8426 28.1633 42.034 27.9718C42.2255 27.7804 42.3331 27.5207 42.3331 27.25C42.3331 26.9793 42.2255 26.7197 42.034 26.5281C41.8426 26.3368 41.5831 26.2292 41.3122 26.2292H39.2706V24.1875C39.2706 23.9168 39.1631 23.6572 38.9716 23.4657C38.7802 23.2743 38.5205 23.1667 38.2497 23.1667C37.979 23.1667 37.7194 23.2743 37.5279 23.4657C37.3365 23.6572 37.229 23.9168 37.229 24.1875V26.2292Z" fill="white"/>
<path d="M24.8332 12.6667H30.6665C30.9759 12.6667 31.2727 12.7896 31.4914 13.0085C31.7102 13.2273 31.8331 13.5241 31.8331 13.8335V19.6668C31.8331 19.9761 31.7102 20.2729 31.4914 20.4917C31.2727 20.7105 30.9759 20.8333 30.6665 20.8333H24.8332C24.5238 20.8333 24.2271 20.7105 24.0083 20.4917C23.7894 20.2729 23.6665 19.9761 23.6665 19.6668V13.8335C23.6665 13.5241 23.7894 13.2273 24.0083 13.0085C24.2271 12.7896 24.5239 12.6667 24.8332 12.6667ZM24.8332 23.1667H30.6665C30.9759 23.1667 31.2727 23.2896 31.4914 23.5083C31.7102 23.7271 31.8331 24.0239 31.8331 24.3333V30.1666C31.8331 30.4759 31.7102 30.7727 31.4914 30.9915C31.2727 31.2104 30.9759 31.3333 30.6665 31.3333H24.8332C24.5238 31.3333 24.2271 31.2104 24.0083 30.9915C23.7894 30.7727 23.6665 30.4759 23.6665 30.1666L23.6665 24.3333C23.6665 24.0239 23.7894 23.7271 24.0083 23.5083C24.2271 23.2896 24.5239 23.1667 24.8332 23.1667ZM35.3332 12.6667H41.1664C41.4758 12.6667 41.7726 12.7896 41.9914 13.0085C42.2103 13.2273 42.3332 13.5241 42.3332 13.8335V19.6668C42.3332 19.9761 42.2103 20.2729 41.9914 20.4917C41.7726 20.7105 41.4758 20.8333 41.1664 20.8333H35.3332C35.0238 20.8333 34.727 20.7105 34.5082 20.4917C34.2895 20.2729 34.1666 19.9761 34.1666 19.6668V13.8335C34.1666 13.5241 34.2895 13.2273 34.5082 13.0085C34.727 12.7896 35.0238 12.6667 35.3332 12.6667Z" fill="white"/>
</svg>
