<svg width="64" height="44" viewBox="0 0 64 44" fill="none" xmlns="http://www.w3.org/2000/svg">
<path d="M-1 0H52C58.6274 0 64 5.37258 64 12V32C64 38.6274 58.6274 44 52 44H-1V0Z" fill="#2E435D"/>
<path d="M-1 0.999999C-1 0.447714 -0.552285 0 0 0C2.76142 0 5 2.23858 5 5V39C5 41.7614 2.76142 44 1.19209e-07 44C-0.552285 44 -1 43.5523 -1 43V0.999999Z" fill="white"/>
<g clip-path="url(#clip0_7_3534)">
<g clip-path="url(#clip1_7_3534)">
<path d="M42.3605 31.0159V19.6625C42.3605 19.247 42.1733 18.8463 41.8457 18.5643L34.0453 11.8859C33.7489 11.6187 33.3745 11.5 33.0001 11.5C32.6256 11.5 32.2512 11.6336 31.9548 11.8859L24.1545 18.5643C23.8269 18.8314 23.6396 19.2322 23.6396 19.6625L23.6396 31.0159C23.6396 31.8322 24.3417 32.5 25.1997 32.5H28.3199C29.1779 32.5 29.8799 31.8322 29.8799 31.0159L29.8799 25.0795H36.1202V31.0159C36.1202 31.8322 36.8222 32.5 37.6803 32.5H40.8004C41.6585 32.5 42.3605 31.8322 42.3605 31.0159Z" fill="white"/>
</g>
</g>
<defs>
<clipPath id="clip0_7_3534">
<rect width="18.7208" height="21" fill="white" transform="translate(23.6396 11.5)"/>
</clipPath>
<clipPath id="clip1_7_3534">
<rect width="18.7208" height="21" fill="white" transform="translate(23.6396 11.5)"/>
</clipPath>
</defs>
</svg>
