<svg width="111" height="56" viewBox="0 0 111 56" fill="none" xmlns="http://www.w3.org/2000/svg">
<path d="M-1 0H99C105.627 0 111 5.37258 111 12V44C111 50.6274 105.627 56 99 56H-1V0Z" fill="#2E435D"/>
<path fill-rule="evenodd" clip-rule="evenodd" d="M42.5006 28C42.5006 27.77 42.4906 27.55 42.4706 27.32L44.3306 25.91C44.7306 25.61 44.8406 25.05 44.5906 24.61L42.7206 21.38C42.4706 20.94 41.9306 20.76 41.4706 20.96L39.3206 21.87C38.9506 21.61 38.5606 21.38 38.1506 21.19L37.8606 18.88C37.8006 18.38 37.3706 18 36.8706 18H33.1406C32.6306 18 32.2006 18.38 32.1406 18.88L31.8506 21.19C31.4406 21.38 31.0506 21.61 30.6806 21.87L28.5306 20.96C28.0706 20.76 27.5306 20.94 27.2806 21.38L25.4106 24.62C25.1606 25.06 25.2706 25.61 25.6706 25.92L27.5306 27.33C27.5106 27.55 27.5006 27.77 27.5006 28C27.5006 28.23 27.5106 28.45 27.5306 28.68L25.6706 30.09C25.2706 30.39 25.1606 30.95 25.4106 31.39L27.2806 34.62C27.5306 35.06 28.0706 35.24 28.5306 35.04L30.6806 34.13C31.0506 34.39 31.4406 34.62 31.8506 34.81L32.1406 37.12C32.2006 37.62 32.6306 38 33.1306 38H36.8606C37.3606 38 37.7906 37.62 37.8506 37.12L38.1406 34.81C38.5506 34.62 38.9406 34.39 39.3106 34.13L41.4606 35.04C41.9206 35.24 42.4606 35.06 42.7106 34.62L44.5806 31.39C44.8306 30.95 44.7206 30.4 44.3206 30.09L42.4606 28.68C42.4906 28.45 42.5006 28.23 42.5006 28ZM35.0407 31.5C33.1107 31.5 31.5407 29.93 31.5407 28C31.5407 26.07 33.1107 24.5 35.0407 24.5C36.9707 24.5 38.5407 26.07 38.5407 28C38.5407 29.93 36.9707 31.5 35.0407 31.5Z" fill="white"/>
<g clip-path="url(#clip0_7_3523)">
<path d="M91.9995 24.1254L95.8795 28.0054L91.9995 31.8854C91.6095 32.2754 91.6095 32.9054 91.9995 33.2954C92.3895 33.6854 93.0195 33.6854 93.4095 33.2954L97.9995 28.7054C98.3895 28.3154 98.3895 27.6854 97.9995 27.2954L93.4095 22.7054C93.0195 22.3154 92.3895 22.3154 91.9995 22.7054C91.6195 23.0954 91.6095 23.7354 91.9995 24.1254Z" fill="white"/>
</g>
<defs>
<clipPath id="clip0_7_3523">
<rect width="18" height="18" fill="white" transform="translate(104 19) rotate(90)"/>
</clipPath>
</defs>
</svg>
