<svg width="18" height="19" viewBox="0 0 18 19" fill="none" xmlns="http://www.w3.org/2000/svg">
<path d="M9 16.9983L8.8125 14.7483H8.625C6.85 14.7483 5.34375 14.1295 4.10625 12.892C2.86875 11.6545 2.25 10.1483 2.25 8.37329C2.25 6.59829 2.86875 5.09204 4.10625 3.85454C5.34375 2.61704 6.85 1.99829 8.625 1.99829C9.5125 1.99829 10.3405 2.16379 11.109 2.49479C11.878 2.82629 12.5533 3.28254 13.1348 3.86354C13.7158 4.44504 14.1718 5.12004 14.5028 5.88854C14.8342 6.65754 15 7.48579 15 8.37329C15 9.31079 14.847 10.2108 14.541 11.0733C14.2345 11.9358 13.8157 12.7358 13.2847 13.4733C12.7532 14.2108 12.122 14.8795 11.391 15.4795C10.6595 16.0795 9.8625 16.5858 9 16.9983ZM8.60625 12.4795C8.81875 12.4795 9 12.4045 9.15 12.2545C9.3 12.1045 9.375 11.9233 9.375 11.7108C9.375 11.4983 9.3 11.317 9.15 11.167C9 11.017 8.81875 10.942 8.60625 10.942C8.39375 10.942 8.2125 11.017 8.0625 11.167C7.9125 11.317 7.8375 11.4983 7.8375 11.7108C7.8375 11.9233 7.9125 12.1045 8.0625 12.2545C8.2125 12.4045 8.39375 12.4795 8.60625 12.4795ZM8.0625 10.0983H9.1875C9.1875 9.72329 9.225 9.46079 9.3 9.31079C9.375 9.16079 9.6125 8.88579 10.0125 8.48579C10.2375 8.26079 10.425 8.01704 10.575 7.75454C10.725 7.49204 10.8 7.21079 10.8 6.91079C10.8 6.27329 10.5845 5.79504 10.1535 5.47604C9.722 5.15754 9.2125 4.99829 8.625 4.99829C8.075 4.99829 7.6125 5.15129 7.2375 5.45729C6.8625 5.76379 6.6 6.13579 6.45 6.57329L7.5 6.98579C7.5625 6.77329 7.68125 6.56379 7.85625 6.35729C8.03125 6.15129 8.2875 6.04829 8.625 6.04829C8.9625 6.04829 9.21575 6.14204 9.38475 6.32954C9.55325 6.51704 9.6375 6.72329 9.6375 6.94829C9.6375 7.16079 9.575 7.35129 9.45 7.51979C9.325 7.68879 9.175 7.86079 9 8.03579C8.5625 8.41079 8.297 8.70754 8.2035 8.92604C8.1095 9.14504 8.0625 9.53579 8.0625 10.0983Z" fill="white"/>
</svg>
