<svg width="19" height="19" viewBox="0 0 19 19" fill="none" xmlns="http://www.w3.org/2000/svg">
<path fill-rule="evenodd" clip-rule="evenodd" d="M15.1719 6.87329H3.57813C3.39692 6.87329 3.25 6.72637 3.25 6.54517V5.56079C3.25 4.83591 3.83762 4.24829 4.5625 4.24829H5.875V2.82642C5.875 2.64521 6.02192 2.49829 6.20313 2.49829H7.29688C7.47809 2.49829 7.62501 2.64521 7.62501 2.82642V4.24829H11.125V2.82642C11.125 2.64521 11.2719 2.49829 11.4531 2.49829H12.5469C12.7281 2.49829 12.875 2.64521 12.875 2.82642V4.24829H14.1875C14.9124 4.24829 15.5 4.83591 15.5 5.56079V6.54517C15.5 6.72638 15.3531 6.8733 15.1719 6.8733L15.1719 6.87329ZM3.57814 7.74829H15.1719C15.3531 7.74829 15.5 7.89521 15.5 8.07641V15.1858C15.5 15.9107 14.9124 16.4983 14.1875 16.4983H4.56252C3.83764 16.4983 3.25002 15.9107 3.25002 15.1858V8.07641C3.25002 7.8952 3.39694 7.74829 3.57815 7.74829H3.57814ZM12.6915 10.3718L11.9212 9.59533C11.7936 9.46668 11.5858 9.46583 11.4572 9.59347L8.55773 12.4696L7.30046 11.2022C7.17285 11.0735 6.96506 11.0727 6.83641 11.2003L6.05993 11.9706C5.93128 12.0982 5.93043 12.306 6.05807 12.4346L8.31669 14.7115C8.4443 14.8401 8.65206 14.841 8.78071 14.7134L12.6896 10.8359C12.8182 10.7083 12.8191 10.5005 12.6914 10.3719L12.6915 10.3718Z" fill="white"/>
</svg>
